<svg id="SvgjsSvg1006" width="782" height="422" xmlns="http://www.w3.org/2000/svg" version="1.1" xmlns:xlink="http://www.w3.org/1999/xlink" xmlns:svgjs="http://svgjs.com/svgjs"><defs id="SvgjsDefs1007"><pattern patternUnits="userSpaceOnUse" id="pattern_mark_0" width="300" height="300"><text x="150" y="100" fill="rgba(229,229,229,0.8)" font-size="18" transform="rotate(-45, 150, 150)" style="dominant-baseline: middle; text-anchor: middle;"></text></pattern><pattern patternUnits="userSpaceOnUse" id="pattern_mark_1" width="300" height="300"><text x="150" y="200" fill="rgba(229,229,229,0.8)" font-size="18" transform="rotate(-45, 150, 150)" style="dominant-baseline: middle; text-anchor: middle;"></text></pattern><marker id="SvgjsMarker1091" markerWidth="13" markerHeight="9" refX="9.5" refY="4.5" viewBox="0 0 13 9" orient="auto" markerUnits="userSpaceOnUse" stroke-dasharray="0,0"><path id="SvgjsPath1092" d="M0,0 L13,4.5 L0,9 L0,0" fill="#323232" stroke="#323232" stroke-width="1"></path></marker><marker id="SvgjsMarker1095" markerWidth="13" markerHeight="9" refX="9.5" refY="4.5" viewBox="0 0 13 9" orient="auto" markerUnits="userSpaceOnUse" stroke-dasharray="0,0"><path id="SvgjsPath1096" d="M0,0 L13,4.5 L0,9 L0,0" fill="#323232" stroke="#323232" stroke-width="1"></path></marker><marker id="SvgjsMarker1117" markerWidth="13" markerHeight="9" refX="9.5" refY="4.5" viewBox="0 0 13 9" orient="auto" markerUnits="userSpaceOnUse" stroke-dasharray="0,0"><path id="SvgjsPath1118" d="M0,0 L13,4.5 L0,9 L0,0" fill="#323232" stroke="#323232" stroke-width="1"></path></marker></defs><rect id="svgbackgroundid" width="782" height="422" fill="transparent"></rect><rect id="SvgjsRect1009" width="782" height="422" fill="url(#pattern_mark_0)"></rect><rect id="SvgjsRect1010" width="782" height="422" fill="url(#pattern_mark_1)"></rect><g id="SvgjsG1011" transform="translate(47,94)"><path id="SvgjsPath1012" d="M 0 4Q 0 0 4 0L 233 0Q 237 0 237 4L 237 163Q 237 167 233 167L 4 167Q 0 167 0 163Z" stroke="rgba(33,41,48,1)" stroke-width="1.5" fill-opacity="1" fill="#ffffff"></path><g id="SvgjsG1013"><text id="SvgjsText1014" font-family="微软雅黑" text-anchor="middle" font-size="13px" width="217px" fill="#323232" font-weight="400" align="middle" lineHeight="125%" anchor="middle" family="微软雅黑" size="13px" weight="400" font-style="" opacity="1" y="72.875" transform="rotate(0)"></text></g></g><g id="SvgjsG1015" transform="translate(90,160)"><path id="SvgjsPath1016" d="M 0 0L 52 0L 52 54L 0 54Z" stroke="rgba(33,41,48,1)" stroke-width="1.5" fill-opacity="1" fill="#ffffff"></path><g id="SvgjsG1017"><text id="SvgjsText1018" font-family="微软雅黑" text-anchor="middle" font-size="13px" width="32px" fill="#323232" font-weight="400" align="middle" lineHeight="125%" anchor="middle" family="微软雅黑" size="13px" weight="400" font-style="" opacity="1" y="16.375" transform="rotate(0)"><tspan id="SvgjsTspan1019" dy="16.25" x="26"><tspan id="SvgjsTspan1020" style="">key</tspan></tspan></text></g></g><g id="SvgjsG1021" transform="translate(25,105)"><path id="SvgjsPath1022" d="M 0 0L 100 0L 100 40L 0 40Z" stroke="none" fill="none"></path><g id="SvgjsG1023"><text id="SvgjsText1024" font-family="微软雅黑" text-anchor="middle" font-size="13px" width="100px" fill="#323232" font-weight="400" align="middle" lineHeight="125%" anchor="middle" family="微软雅黑" size="13px" weight="400" font-style="" opacity="1" y="9.375" transform="rotate(0)"><tspan id="SvgjsTspan1025" dy="16.25" x="50"><tspan id="SvgjsTspan1026" style="">Cache</tspan></tspan></text></g></g><g id="SvgjsG1027" transform="translate(142,160)"><path id="SvgjsPath1028" d="M 0 0L 120 0L 120 54L 0 54Z" stroke="rgba(33,41,48,1)" stroke-width="1.5" fill-opacity="1" fill="#ffffff"></path><g id="SvgjsG1029"><text id="SvgjsText1030" font-family="微软雅黑" text-anchor="middle" font-size="13px" width="100px" fill="#323232" font-weight="400" align="middle" lineHeight="125%" anchor="middle" family="微软雅黑" size="13px" weight="400" font-style="" opacity="1" y="16.375" transform="rotate(0)"><tspan id="SvgjsTspan1031" dy="16.25" x="60"><tspan id="SvgjsTspan1032" style="">SegmentBuffer</tspan></tspan></text></g></g><g id="SvgjsG1033" transform="translate(408.86813186813185,25)"><path id="SvgjsPath1034" d="M 0 4Q 0 0 4 0L 344.13186813186815 0Q 348.13186813186815 0 348.13186813186815 4L 348.13186813186815 182Q 348.13186813186815 186 344.13186813186815 186L 4 186Q 0 186 0 182Z" stroke="rgba(33,41,48,1)" stroke-width="1.5" fill-opacity="1" fill="#ffffff"></path><g id="SvgjsG1035"><text id="SvgjsText1036" font-family="微软雅黑" text-anchor="middle" font-size="13px" width="329px" fill="#323232" font-weight="400" align="middle" lineHeight="125%" anchor="middle" family="微软雅黑" size="13px" weight="400" font-style="" opacity="1" y="82.375" transform="rotate(0)"></text></g></g><g id="SvgjsG1037" transform="translate(444.4725274725274,98.50898203592814)"><path id="SvgjsPath1038" d="M 0 0L 191.2087912087912 0L 191.2087912087912 101.35329341317365L 0 101.35329341317365Z" stroke="rgba(33,41,48,1)" stroke-width="1.5" fill-opacity="1" fill="#ffffff"></path><g id="SvgjsG1039"><text id="SvgjsText1040" font-family="微软雅黑" text-anchor="middle" font-size="13px" width="172px" fill="#323232" font-weight="400" align="middle" lineHeight="125%" anchor="middle" family="微软雅黑" size="13px" weight="400" font-style="" opacity="1" y="40.05164670658682" transform="rotate(0)"></text></g></g><g id="SvgjsG1041" transform="translate(423.3736263736264,95.72455089820357)"><path id="SvgjsPath1042" d="M 0 0L 131.86813186813185 0L 131.86813186813185 44.550898203592816L 0 44.550898203592816Z" stroke="none" fill="none"></path><g id="SvgjsG1043"><text id="SvgjsText1044" font-family="微软雅黑" text-anchor="middle" font-size="13px" width="132px" fill="#323232" font-weight="400" align="middle" lineHeight="125%" anchor="middle" family="微软雅黑" size="13px" weight="400" font-style="" opacity="1" y="11.650449101796408" transform="rotate(0)"><tspan id="SvgjsTspan1045" dy="16.25" x="66"><tspan id="SvgjsTspan1046" style="">segments</tspan></tspan></text></g></g><g id="SvgjsG1047" transform="translate(524.9120879120879,158.65269461077844)"><path id="SvgjsPath1048" d="M 0 0L 97.58241758241758 0L 97.58241758241758 27.844311377245507L 0 27.844311377245507Z" stroke="rgba(33,41,48,1)" stroke-width="1.5" fill-opacity="1" fill="#ffffff"></path><g id="SvgjsG1049"><text id="SvgjsText1050" font-family="微软雅黑" text-anchor="middle" font-size="13px" width="78px" fill="#323232" font-weight="400" align="middle" lineHeight="125%" anchor="middle" family="微软雅黑" size="13px" weight="400" font-style="" opacity="1" y="3.2971556886227535" transform="rotate(0)"><tspan id="SvgjsTspan1051" dy="16.25" x="49"><tspan id="SvgjsTspan1052" style="">Segment</tspan></tspan></text></g></g><g id="SvgjsG1053" transform="translate(513.0439560439561,143.05988023952096)"><path id="SvgjsPath1054" d="M 0 0L 97.58241758241758 0L 97.58241758241758 27.844311377245507L 0 27.844311377245507Z" stroke="rgba(33,41,48,1)" stroke-width="1.5" fill-opacity="1" fill="#ffffff"></path><g id="SvgjsG1055"><text id="SvgjsText1056" font-family="微软雅黑" text-anchor="middle" font-size="13px" width="78px" fill="#323232" font-weight="400" align="middle" lineHeight="125%" anchor="middle" family="微软雅黑" size="13px" weight="400" font-style="" opacity="1" y="3.2971556886227535" transform="rotate(0)"><tspan id="SvgjsTspan1057" dy="16.25" x="49"><tspan id="SvgjsTspan1058" style="">Segment</tspan></tspan></text></g></g><g id="SvgjsG1059" transform="translate(499.8571428571429,128.5808383233533)"><path id="SvgjsPath1060" d="M 0 0L 97.58241758241758 0L 97.58241758241758 27.844311377245507L 0 27.844311377245507Z" stroke="rgba(33,41,48,1)" stroke-width="1.5" fill-opacity="1" fill="#ffffff"></path><g id="SvgjsG1061"><text id="SvgjsText1062" font-family="微软雅黑" text-anchor="middle" font-size="13px" width="78px" fill="#323232" font-weight="400" align="middle" lineHeight="125%" anchor="middle" family="微软雅黑" size="13px" weight="400" font-style="" opacity="1" y="3.2971556886227535" transform="rotate(0)"><tspan id="SvgjsTspan1063" dy="16.25" x="49"><tspan id="SvgjsTspan1064" style="">Segment</tspan></tspan></text></g></g><g id="SvgjsG1065" transform="translate(397,37.25149700598803)"><path id="SvgjsPath1066" d="M 0 0L 158.24175824175825 0L 158.24175824175825 44.550898203592816L 0 44.550898203592816Z" stroke="none" fill="none"></path><g id="SvgjsG1067"><text id="SvgjsText1068" font-family="微软雅黑" text-anchor="middle" font-size="13px" width="159px" fill="#323232" font-weight="400" align="middle" lineHeight="125%" anchor="middle" family="微软雅黑" size="13px" weight="400" font-style="" opacity="1" y="11.650449101796408" transform="rotate(0)"><tspan id="SvgjsTspan1069" dy="16.25" x="79.5"><tspan id="SvgjsTspan1070" style="">SegmentBuffer</tspan></tspan></text></g></g><g id="SvgjsG1071" transform="translate(406,266)"><path id="SvgjsPath1072" d="M 0 4Q 0 0 4 0L 239 0Q 243 0 243 4L 243 127Q 243 131 239 131L 4 131Q 0 131 0 127Z" stroke="rgba(33,41,48,1)" stroke-width="1.5" fill-opacity="1" fill="#ffffff"></path><g id="SvgjsG1073"><text id="SvgjsText1074" font-family="微软雅黑" text-anchor="middle" font-size="13px" width="223px" fill="#323232" font-weight="400" align="middle" lineHeight="125%" anchor="middle" family="微软雅黑" size="13px" weight="400" font-style="" opacity="1" y="54.875" transform="rotate(0)"></text></g></g><g id="SvgjsG1075" transform="translate(394,268)"><path id="SvgjsPath1076" d="M 0 0L 100 0L 100 40L 0 40Z" stroke="none" fill="none"></path><g id="SvgjsG1077"><text id="SvgjsText1078" font-family="微软雅黑" text-anchor="middle" font-size="13px" width="100px" fill="#323232" font-weight="400" align="middle" lineHeight="125%" anchor="middle" family="微软雅黑" size="13px" weight="400" font-style="" opacity="1" y="9.375" transform="rotate(0)"><tspan id="SvgjsTspan1079" dy="16.25" x="50"><tspan id="SvgjsTspan1080" style="">Segment</tspan></tspan></text></g></g><g id="SvgjsG1081" transform="translate(423.3736263736264,314.05988023952096)"><path id="SvgjsPath1082" d="M 0 0L 110 0L 110 36L 0 36Z" stroke="rgba(33,41,48,1)" stroke-width="1.5" fill-opacity="1" fill="#ffffff"></path><g id="SvgjsG1083"><text id="SvgjsText1084" font-family="微软雅黑" text-anchor="middle" font-size="13px" width="90px" fill="#323232" font-weight="400" align="middle" lineHeight="125%" anchor="middle" family="微软雅黑" size="13px" weight="400" font-style="" opacity="1" y="-1.125" transform="rotate(0)"><tspan id="SvgjsTspan1085" dy="16.25" x="55"><tspan id="SvgjsTspan1086" style="">SegmentBuffe</tspan></tspan><tspan id="SvgjsTspan1087" dy="16.25" x="55"><tspan id="SvgjsTspan1088" style="">r</tspan></tspan></text></g></g><g id="SvgjsG1089"><path id="SvgjsPath1090" d="M262.7476808499244 186.94106489453367C 326.9076244007558 186.99999999999994 343.96050746737603 118 406.176480808404 118.21216637967879" stroke="#323232" stroke-width="1.5" fill="none" marker-end="url(#SvgjsMarker1091)"></path></g><g id="SvgjsG1093"><path id="SvgjsPath1094" d="M573.5708586478366 187.2352201584826C 573.7032967032967 247.7710568854401 444 206.72594910258385 444.4767769996563 265.34242898634886" stroke="#323232" stroke-width="1.5" fill="none" marker-end="url(#SvgjsMarker1095)"></path></g><g id="SvgjsG1097" transform="translate(576.6813186813187,314.05988023952096)"><path id="SvgjsPath1098" d="M 0 0L 59 0L 59 25L 0 25Z" stroke="rgba(33,41,48,1)" stroke-width="1.5" fill-opacity="1" fill="#ffffff"></path><g id="SvgjsG1099"><text id="SvgjsText1100" font-family="微软雅黑" text-anchor="middle" font-size="13px" width="39px" fill="#323232" font-weight="400" align="middle" lineHeight="125%" anchor="middle" family="微软雅黑" size="13px" weight="400" font-style="" opacity="1" y="1.875" transform="rotate(0)"><tspan id="SvgjsTspan1101" dy="16.25" x="29.5"><tspan id="SvgjsTspan1102" style="">maxId</tspan></tspan></text></g></g><g id="SvgjsG1103" transform="translate(576.6813186813187,283)"><path id="SvgjsPath1104" d="M 0 0L 59 0L 59 25L 0 25Z" stroke="rgba(33,41,48,1)" stroke-width="1.5" fill-opacity="1" fill="#ffffff"></path><g id="SvgjsG1105"><text id="SvgjsText1106" font-family="微软雅黑" text-anchor="middle" font-size="13px" width="39px" fill="#323232" font-weight="400" align="middle" lineHeight="125%" anchor="middle" family="微软雅黑" size="13px" weight="400" font-style="" opacity="1" y="1.875" transform="rotate(0)"><tspan id="SvgjsTspan1107" dy="16.25" x="29.5"><tspan id="SvgjsTspan1108" style="">value</tspan></tspan></text></g></g><g id="SvgjsG1109" transform="translate(576.6813186813187,345.11976047904193)"><path id="SvgjsPath1110" d="M 0 0L 59 0L 59 25L 0 25Z" stroke="rgba(33,41,48,1)" stroke-width="1.5" fill-opacity="1" fill="#ffffff"></path><g id="SvgjsG1111"><text id="SvgjsText1112" font-family="微软雅黑" text-anchor="middle" font-size="13px" width="39px" fill="#323232" font-weight="400" align="middle" lineHeight="125%" anchor="middle" family="微软雅黑" size="13px" weight="400" font-style="" opacity="1" y="1.875" transform="rotate(0)"><tspan id="SvgjsTspan1113" dy="16.25" x="29.5"><tspan id="SvgjsTspan1114" style="">step</tspan></tspan></text></g></g><g id="SvgjsG1115"><path id="SvgjsPath1116" d="M422.6291641679584 331.96890758246417C 324.3825677397517 332.05988023952096 310.0089413661253 85 406.3205087340873 85.33215441574339" stroke="#323232" stroke-width="1.5" fill="none" marker-end="url(#SvgjsMarker1117)"></path></g><g id="SvgjsG1119" transform="translate(668,95.72455089820357)"><path id="SvgjsPath1120" d="M 0 0L 68 0L 68 25.491017964071858L 0 25.491017964071858Z" stroke="rgba(33,41,48,1)" stroke-width="1.5" fill-opacity="1" fill="#ffffff"></path><g id="SvgjsG1121"><text id="SvgjsText1122" font-family="微软雅黑" text-anchor="middle" font-size="13px" width="48px" fill="#323232" font-weight="400" align="middle" lineHeight="125%" anchor="middle" family="微软雅黑" size="13px" weight="400" font-style="" opacity="1" y="2.120508982035929" transform="rotate(0)"><tspan id="SvgjsTspan1123" dy="16.25" x="34"><tspan id="SvgjsTspan1124" style="">step</tspan></tspan></text></g></g><g id="SvgjsG1125" transform="translate(668,136.44011976047904)"><path id="SvgjsPath1126" d="M 0 0L 68 0L 68 25.49101796407183L 0 25.49101796407183Z" stroke="rgba(33,41,48,1)" stroke-width="1.5" fill-opacity="1" fill="#ffffff"></path><g id="SvgjsG1127"><text id="SvgjsText1128" font-family="微软雅黑" text-anchor="middle" font-size="13px" width="48px" fill="#323232" font-weight="400" align="middle" lineHeight="125%" anchor="middle" family="微软雅黑" size="13px" weight="400" font-style="" opacity="1" y="-6.379491017964085" transform="rotate(0)"><tspan id="SvgjsTspan1129" dy="16.25" x="34"><tspan id="SvgjsTspan1130" style="">minSte</tspan></tspan><tspan id="SvgjsTspan1131" dy="16.25" x="34"><tspan id="SvgjsTspan1132" style="">p</tspan></tspan></text></g></g></svg>