<svg id="SvgjsSvg1715" width="1057.3125" height="1084.5" xmlns="http://www.w3.org/2000/svg" version="1.1" xmlns:xlink="http://www.w3.org/1999/xlink" xmlns:svgjs="http://svgjs.com/svgjs"><defs id="SvgjsDefs1716"><pattern patternUnits="userSpaceOnUse" id="pattern_mark_0" width="300" height="300"><text x="150" y="100" fill="rgba(229,229,229,0.8)" font-size="18" transform="rotate(-45, 150, 150)" style="dominant-baseline: middle; text-anchor: middle;"></text></pattern><pattern patternUnits="userSpaceOnUse" id="pattern_mark_1" width="300" height="300"><text x="150" y="200" fill="rgba(229,229,229,0.8)" font-size="18" transform="rotate(-45, 150, 150)" style="dominant-baseline: middle; text-anchor: middle;"></text></pattern><marker id="SvgjsMarker1744" markerWidth="13" markerHeight="9" refX="9.5" refY="4.5" viewBox="0 0 13 9" orient="auto" markerUnits="userSpaceOnUse" stroke-dasharray="0,0"><path id="SvgjsPath1745" d="M0,0 L13,4.5 L0,9 L0,0" fill="#323232" stroke="#323232" stroke-width="1"></path></marker><marker id="SvgjsMarker1752" markerWidth="13" markerHeight="9" refX="9.5" refY="4.5" viewBox="0 0 13 9" orient="auto" markerUnits="userSpaceOnUse" stroke-dasharray="0,0"><path id="SvgjsPath1753" d="M0,0 L13,4.5 L0,9 L0,0" fill="#323232" stroke="#323232" stroke-width="1"></path></marker><marker id="SvgjsMarker1768" markerWidth="13" markerHeight="9" refX="9.5" refY="4.5" viewBox="0 0 13 9" orient="auto" markerUnits="userSpaceOnUse" stroke-dasharray="0,0"><path id="SvgjsPath1769" d="M0,0 L13,4.5 L0,9 L0,0" fill="#323232" stroke="#323232" stroke-width="1"></path></marker><marker id="SvgjsMarker1782" markerWidth="13" markerHeight="9" refX="9.5" refY="4.5" viewBox="0 0 13 9" orient="auto" markerUnits="userSpaceOnUse" stroke-dasharray="0,0"><path id="SvgjsPath1783" d="M0,0 L13,4.5 L0,9 L0,0" fill="#323232" stroke="#323232" stroke-width="1"></path></marker><marker id="SvgjsMarker1792" markerWidth="13" markerHeight="9" refX="9.5" refY="4.5" viewBox="0 0 13 9" orient="auto" markerUnits="userSpaceOnUse" stroke-dasharray="0,0"><path id="SvgjsPath1793" d="M0,0 L13,4.5 L0,9 L0,0" fill="#323232" stroke="#323232" stroke-width="1"></path></marker><marker id="SvgjsMarker1808" markerWidth="13" markerHeight="9" refX="9.5" refY="4.5" viewBox="0 0 13 9" orient="auto" markerUnits="userSpaceOnUse" stroke-dasharray="0,0"><path id="SvgjsPath1809" d="M0,0 L13,4.5 L0,9 L0,0" fill="#323232" stroke="#323232" stroke-width="1"></path></marker><marker id="SvgjsMarker1826" markerWidth="13" markerHeight="9" refX="9.5" refY="4.5" viewBox="0 0 13 9" orient="auto" markerUnits="userSpaceOnUse" stroke-dasharray="0,0"><path id="SvgjsPath1827" d="M0,0 L13,4.5 L0,9 L0,0" fill="#323232" stroke="#323232" stroke-width="1"></path></marker><marker id="SvgjsMarker1838" markerWidth="13" markerHeight="9" refX="9.5" refY="4.5" viewBox="0 0 13 9" orient="auto" markerUnits="userSpaceOnUse" stroke-dasharray="0,0"><path id="SvgjsPath1839" d="M0,0 L13,4.5 L0,9 L0,0" fill="#323232" stroke="#323232" stroke-width="1"></path></marker><marker id="SvgjsMarker1856" markerWidth="13" markerHeight="9" refX="9.5" refY="4.5" viewBox="0 0 13 9" orient="auto" markerUnits="userSpaceOnUse" stroke-dasharray="0,0"><path id="SvgjsPath1857" d="M0,0 L13,4.5 L0,9 L0,0" fill="#323232" stroke="#323232" stroke-width="1"></path></marker><marker id="SvgjsMarker1864" markerWidth="13" markerHeight="9" refX="9.5" refY="4.5" viewBox="0 0 13 9" orient="auto" markerUnits="userSpaceOnUse" stroke-dasharray="0,0"><path id="SvgjsPath1865" d="M0,0 L13,4.5 L0,9 L0,0" fill="#323232" stroke="#323232" stroke-width="1"></path></marker><marker id="SvgjsMarker1878" markerWidth="13" markerHeight="9" refX="9.5" refY="4.5" viewBox="0 0 13 9" orient="auto" markerUnits="userSpaceOnUse" stroke-dasharray="0,0"><path id="SvgjsPath1879" d="M0,0 L13,4.5 L0,9 L0,0" fill="#323232" stroke="#323232" stroke-width="1"></path></marker><marker id="SvgjsMarker1892" markerWidth="13" markerHeight="9" refX="9.5" refY="4.5" viewBox="0 0 13 9" orient="auto" markerUnits="userSpaceOnUse" stroke-dasharray="0,0"><path id="SvgjsPath1893" d="M0,0 L13,4.5 L0,9 L0,0" fill="#323232" stroke="#323232" stroke-width="1"></path></marker><marker id="SvgjsMarker1904" markerWidth="13" markerHeight="9" refX="9.5" refY="4.5" viewBox="0 0 13 9" orient="auto" markerUnits="userSpaceOnUse" stroke-dasharray="0,0"><path id="SvgjsPath1905" d="M0,0 L13,4.5 L0,9 L0,0" fill="#323232" stroke="#323232" stroke-width="1"></path></marker><marker id="SvgjsMarker1912" markerWidth="13" markerHeight="9" refX="9.5" refY="4.5" viewBox="0 0 13 9" orient="auto" markerUnits="userSpaceOnUse" stroke-dasharray="0,0"><path id="SvgjsPath1913" d="M0,0 L13,4.5 L0,9 L0,0" fill="#323232" stroke="#323232" stroke-width="1"></path></marker><marker id="SvgjsMarker1930" markerWidth="13" markerHeight="9" refX="9.5" refY="4.5" viewBox="0 0 13 9" orient="auto" markerUnits="userSpaceOnUse" stroke-dasharray="0,0"><path id="SvgjsPath1931" d="M0,0 L13,4.5 L0,9 L0,0" fill="#323232" stroke="#323232" stroke-width="1"></path></marker><marker id="SvgjsMarker1934" markerWidth="13" markerHeight="9" refX="9.5" refY="4.5" viewBox="0 0 13 9" orient="auto" markerUnits="userSpaceOnUse" stroke-dasharray="0,0"><path id="SvgjsPath1935" d="M0,0 L13,4.5 L0,9 L0,0" fill="#323232" stroke="#323232" stroke-width="1"></path></marker><marker id="SvgjsMarker1944" markerWidth="13" markerHeight="9" refX="9.5" refY="4.5" viewBox="0 0 13 9" orient="auto" markerUnits="userSpaceOnUse" stroke-dasharray="0,0"><path id="SvgjsPath1945" d="M0,0 L13,4.5 L0,9 L0,0" fill="#323232" stroke="#323232" stroke-width="1"></path></marker><marker id="SvgjsMarker1948" markerWidth="13" markerHeight="9" refX="9.5" refY="4.5" viewBox="0 0 13 9" orient="auto" markerUnits="userSpaceOnUse" stroke-dasharray="0,0"><path id="SvgjsPath1949" d="M0,0 L13,4.5 L0,9 L0,0" fill="#323232" stroke="#323232" stroke-width="1"></path></marker></defs><rect id="svgbackgroundid" width="1057.3125" height="1084.5" fill="transparent"></rect><rect id="SvgjsRect1718" width="1057.3125" height="1084.5" fill="url(#pattern_mark_0)"></rect><rect id="SvgjsRect1719" width="1057.3125" height="1084.5" fill="url(#pattern_mark_1)"></rect><g id="SvgjsG1720" transform="translate(170.5,272.5)"><path id="SvgjsPath1721" d="M 0 4Q 0 0 4 0L 142.5 0Q 146.5 0 146.5 4L 146.5 62Q 146.5 66 142.5 66L 4 66Q 0 66 0 62Z" stroke="rgba(33,41,48,1)" stroke-width="1.5" fill-opacity="1" fill="#ffffff"></path><g id="SvgjsG1722"><text id="SvgjsText1723" font-family="微软雅黑" text-anchor="middle" font-size="13px" width="127px" fill="#323232" font-weight="400" align="middle" lineHeight="125%" anchor="middle" family="微软雅黑" size="13px" weight="400" font-style="" opacity="1" y="5.875" transform="rotate(0)"><tspan id="SvgjsTspan1724" dy="16.25" x="73.5"><tspan id="SvgjsTspan1725" style="">创建根节点和当前服</tspan></tspan><tspan id="SvgjsTspan1726" dy="16.25" x="73.5"><tspan id="SvgjsTspan1727" style="">务的节点</tspan></tspan><tspan id="SvgjsTspan1728" dy="16.25" x="73.5"><tspan id="SvgjsTspan1729" style="">（持久顺序节点）</tspan></tspan></text></g></g><g id="SvgjsG1730" transform="translate(199,25)"><path id="SvgjsPath1731" d="M 16.666666666666668 0L 83.33333333333333 0C 105.55555555555556 0 105.55555555555556 50 83.33333333333333 50L 16.666666666666668 50C -5.555555555555556 50 -5.555555555555556 0 16.666666666666668 0Z" stroke="rgba(33,41,48,1)" stroke-width="1.5" fill-opacity="1" fill="#ffffff"></path><g id="SvgjsG1732"><text id="SvgjsText1733" font-family="微软雅黑" text-anchor="middle" font-size="13px" width="80px" fill="#323232" font-weight="400" align="middle" lineHeight="125%" anchor="middle" family="微软雅黑" size="13px" weight="400" font-style="" opacity="1" y="14.375" transform="rotate(0)"><tspan id="SvgjsTspan1734" dy="16.25" x="50"><tspan id="SvgjsTspan1735" style="">开始</tspan></tspan></text></g></g><g id="SvgjsG1736" transform="translate(397,266.5)"><path id="SvgjsPath1737" d="M 0 39L 92 0L 184 39L 92 78Z" stroke="rgba(33,41,48,1)" stroke-width="1.5" fill-opacity="1" fill="#ffffff"></path><g id="SvgjsG1738"><text id="SvgjsText1739" font-family="微软雅黑" text-anchor="middle" font-size="13px" width="164px" fill="#323232" font-weight="400" align="middle" lineHeight="125%" anchor="middle" family="微软雅黑" size="13px" weight="400" font-style="" opacity="1" y="28.765" transform="rotate(0)"><tspan id="SvgjsTspan1740" dy="16.25" x="92"><tspan id="SvgjsTspan1741" style="">判断根节点是否存在</tspan></tspan></text></g></g><g id="SvgjsG1742"><path id="SvgjsPath1743" d="M396.25 305.5L357 305.5L357 305.5L319.70000000000005 305.5" stroke="#323232" stroke-width="1.5" fill="none" marker-end="url(#SvgjsMarker1744)"></path><rect id="SvgjsRect1746" width="13" height="18" x="358.173125" y="296.5" fill="#ffffff"></rect><text id="SvgjsText1747" font-family="微软雅黑" text-anchor="middle" font-size="13px" width="13px" fill="#323232" font-weight="400" align="top" lineHeight="16px" anchor="middle" family="微软雅黑" size="13px" weight="400" font-style="" opacity="1" y="293.875" transform="rotate(0)"><tspan id="SvgjsTspan1748" dy="16.25" x="364.673125"><tspan id="SvgjsTspan1749" style="">否</tspan></tspan></text></g><g id="SvgjsG1750"><path id="SvgjsPath1751" d="M581.75 305.5L619.375 305.5L619.375 305.5L655.05 305.5" stroke="#323232" stroke-width="1.5" fill="none" marker-end="url(#SvgjsMarker1752)"></path><rect id="SvgjsRect1754" width="13" height="18" x="605.334039087948" y="296.5" fill="#ffffff"></rect><text id="SvgjsText1755" font-family="微软雅黑" text-anchor="middle" font-size="13px" width="13px" fill="#323232" font-weight="400" align="top" lineHeight="16px" anchor="middle" family="微软雅黑" size="13px" weight="400" font-style="" opacity="1" y="293.875" transform="rotate(0)"><tspan id="SvgjsTspan1756" dy="16.25" x="611.834039087948"><tspan id="SvgjsTspan1757" style="">是</tspan></tspan></text></g><g id="SvgjsG1758" transform="translate(657.75,271.375)"><path id="SvgjsPath1759" d="M 0 4Q 0 0 4 0L 124 0Q 128 0 128 4L 128 64.25Q 128 68.25 124 68.25L 4 68.25Q 0 68.25 0 64.25Z" stroke="rgba(33,41,48,1)" stroke-width="1.5" fill-opacity="1" fill="#ffffff"></path><g id="SvgjsG1760"><text id="SvgjsText1761" font-family="微软雅黑" text-anchor="middle" font-size="13px" width="108px" fill="#323232" font-weight="400" align="middle" lineHeight="125%" anchor="middle" family="微软雅黑" size="13px" weight="400" font-style="" opacity="1" y="15" transform="rotate(0)"><tspan id="SvgjsTspan1762" dy="16.25" x="64"><tspan id="SvgjsTspan1763" style="">获取根节点的所有</tspan></tspan><tspan id="SvgjsTspan1764" dy="16.25" x="64"><tspan id="SvgjsTspan1765" style="">子节点</tspan></tspan></text></g></g><g id="SvgjsG1766"><path id="SvgjsPath1767" d="M721.75 340.375L721.75 365.0625L721.75 365.0625L721.75 387.8" stroke="#323232" stroke-width="1.5" fill="none" marker-end="url(#SvgjsMarker1768)"></path></g><g id="SvgjsG1770" transform="translate(645,390.5)"><path id="SvgjsPath1771" d="M 0 4Q 0 0 4 0L 149.5 0Q 153.5 0 153.5 4L 153.5 69Q 153.5 73 149.5 73L 4 73Q 0 73 0 69Z" stroke="rgba(33,41,48,1)" stroke-width="1.5" fill-opacity="1" fill="#ffffff"></path><g id="SvgjsG1772"><text id="SvgjsText1773" font-family="微软雅黑" text-anchor="middle" font-size="13px" width="134px" fill="#323232" font-weight="400" align="middle" lineHeight="125%" anchor="middle" family="微软雅黑" size="13px" weight="400" font-style="" opacity="1" y="9.375" transform="rotate(0)"><tspan id="SvgjsTspan1774" dy="16.25" x="77"><tspan id="SvgjsTspan1775" style="">获取当前服务节点的工</tspan></tspan><tspan id="SvgjsTspan1776" dy="16.25" x="77"><tspan id="SvgjsTspan1777" style="">作id，这个工作id就是</tspan></tspan><tspan id="SvgjsTspan1778" dy="16.25" x="77"><tspan id="SvgjsTspan1779" style="">zk生成的顺序号码</tspan></tspan></text></g></g><g id="SvgjsG1780"><path id="SvgjsPath1781" d="M721.75 464.25L721.75 488.9375L721.75 488.9375L721.75 511.67499999999995" stroke="#323232" stroke-width="1.5" fill="none" marker-end="url(#SvgjsMarker1782)"></path></g><g id="SvgjsG1784" transform="translate(650.125,514.375)"><path id="SvgjsPath1785" d="M 0 36.75L 71.625 0L 143.25 36.75L 71.625 73.5Z" stroke="rgba(33,41,48,1)" stroke-width="1.5" fill-opacity="1" fill="#ffffff"></path><g id="SvgjsG1786"><text id="SvgjsText1787" font-family="微软雅黑" text-anchor="middle" font-size="13px" width="124px" fill="#323232" font-weight="400" align="middle" lineHeight="125%" anchor="middle" family="微软雅黑" size="13px" weight="400" font-style="" opacity="1" y="26.4925" transform="rotate(0)"><tspan id="SvgjsTspan1788" dy="16.25" x="72"><tspan id="SvgjsTspan1789" style="">判断工作id是否为null</tspan></tspan></text></g></g><g id="SvgjsG1790"><path id="SvgjsPath1791" d="M649.375 551.125L610.125 551.125L610.125 551.125L572.825 551.125" stroke="#323232" stroke-width="1.5" fill="none" marker-end="url(#SvgjsMarker1792)"></path><rect id="SvgjsRect1794" width="13" height="18" x="605.437265625" y="542.125" fill="#ffffff"></rect><text id="SvgjsText1795" font-family="微软雅黑" text-anchor="middle" font-size="13px" width="13px" fill="#323232" font-weight="400" align="top" lineHeight="16px" anchor="middle" family="微软雅黑" size="13px" weight="400" font-style="" opacity="1" y="539.5" transform="rotate(0)"><tspan id="SvgjsTspan1796" dy="16.25" x="611.937265625"><tspan id="SvgjsTspan1797" style="">否</tspan></tspan></text></g><g id="SvgjsG1798" transform="translate(474.125,524.125)"><path id="SvgjsPath1799" d="M 0 4Q 0 0 4 0L 92 0Q 96 0 96 4L 96 50Q 96 54 92 54L 4 54Q 0 54 0 50Z" stroke="rgba(33,41,48,1)" stroke-width="1.5" fill-opacity="1" fill="#ffffff"></path><g id="SvgjsG1800"><text id="SvgjsText1801" font-family="微软雅黑" text-anchor="middle" font-size="13px" width="76px" fill="#323232" font-weight="400" align="middle" lineHeight="125%" anchor="middle" family="微软雅黑" size="13px" weight="400" font-style="" opacity="1" y="7.875" transform="rotate(0)"><tspan id="SvgjsTspan1802" dy="16.25" x="48"><tspan id="SvgjsTspan1803" style="">创建当前服</tspan></tspan><tspan id="SvgjsTspan1804" dy="16.25" x="48"><tspan id="SvgjsTspan1805" style="">务的节点</tspan></tspan></text></g></g><g id="SvgjsG1806"><path id="SvgjsPath1807" d="M794.125 551.125L833.375 551.125L833.375 551.125L870.675 551.125" stroke="#323232" stroke-width="1.5" fill="none" marker-end="url(#SvgjsMarker1808)"></path><rect id="SvgjsRect1810" width="13" height="18" x="828.4117968749999" y="542.125" fill="#ffffff"></rect><text id="SvgjsText1811" font-family="微软雅黑" text-anchor="middle" font-size="13px" width="13px" fill="#323232" font-weight="400" align="top" lineHeight="16px" anchor="middle" family="微软雅黑" size="13px" weight="400" font-style="" opacity="1" y="539.5" transform="rotate(0)"><tspan id="SvgjsTspan1812" dy="16.25" x="834.9117968749999"><tspan id="SvgjsTspan1813" style="">是</tspan></tspan></text></g><g id="SvgjsG1814" transform="translate(873.375,524.125)"><path id="SvgjsPath1815" d="M 0 4Q 0 0 4 0L 92 0Q 96 0 96 4L 96 50Q 96 54 92 54L 4 54Q 0 54 0 50Z" stroke="rgba(33,41,48,1)" stroke-width="1.5" fill-opacity="1" fill="#ffffff"></path><g id="SvgjsG1816"><text id="SvgjsText1817" font-family="微软雅黑" text-anchor="middle" font-size="13px" width="76px" fill="#323232" font-weight="400" align="middle" lineHeight="125%" anchor="middle" family="微软雅黑" size="13px" weight="400" font-style="" opacity="1" y="-0.125" transform="rotate(0)"><tspan id="SvgjsTspan1818" dy="16.25" x="48"><tspan id="SvgjsTspan1819" style="">获取存储在</tspan></tspan><tspan id="SvgjsTspan1820" dy="16.25" x="48"><tspan id="SvgjsTspan1821" style="">当前节点上</tspan></tspan><tspan id="SvgjsTspan1822" dy="16.25" x="48"><tspan id="SvgjsTspan1823" style="">的数据</tspan></tspan></text></g></g><g id="SvgjsG1824"><path id="SvgjsPath1825" d="M921.375 578.875L921.375 607.375L921.375 607.375L921.375 633.925" stroke="#323232" stroke-width="1.5" fill="none" marker-end="url(#SvgjsMarker1826)"></path></g><g id="SvgjsG1828" transform="translate(840.4375,636.625)"><path id="SvgjsPath1829" d="M 0 43.4375L 80.9375 0L 161.875 43.4375L 80.9375 86.875Z" stroke="rgba(33,41,48,1)" stroke-width="1.5" fill-opacity="1" fill="#ffffff"></path><g id="SvgjsG1830"><text id="SvgjsText1831" font-family="微软雅黑" text-anchor="middle" font-size="13px" width="142px" fill="#323232" font-weight="400" align="middle" lineHeight="125%" anchor="middle" family="微软雅黑" size="13px" weight="400" font-style="" opacity="1" y="24.746875000000003" transform="rotate(0)"><tspan id="SvgjsTspan1832" dy="16.25" x="81"><tspan id="SvgjsTspan1833" style="">判断节点上之前存储的</tspan></tspan><tspan id="SvgjsTspan1834" dy="16.25" x="81"><tspan id="SvgjsTspan1835" style="">数据是否小于当前时间</tspan></tspan></text></g></g><g id="SvgjsG1836"><path id="SvgjsPath1837" d="M839.6875 680.0625L800.4375 680.0625L800.4375 680.0625L763.1375 680.0625" stroke="#323232" stroke-width="1.5" fill="none" marker-end="url(#SvgjsMarker1838)"></path><rect id="SvgjsRect1840" width="13" height="18" x="798.3213671875001" y="671.0625" fill="#ffffff"></rect><text id="SvgjsText1841" font-family="微软雅黑" text-anchor="middle" font-size="13px" width="13px" fill="#323232" font-weight="400" align="top" lineHeight="16px" anchor="middle" family="微软雅黑" size="13px" weight="400" font-style="" opacity="1" y="668.4375" transform="rotate(0)"><tspan id="SvgjsTspan1842" dy="16.25" x="804.8213671875001"><tspan id="SvgjsTspan1843" style="">否</tspan></tspan></text></g><g id="SvgjsG1844" transform="translate(631,653.0625)"><path id="SvgjsPath1845" d="M 0 4Q 0 0 4 0L 125.4375 0Q 129.4375 0 129.4375 4L 129.4375 50Q 129.4375 54 125.4375 54L 4 54Q 0 54 0 50Z" stroke="rgba(33,41,48,1)" stroke-width="1.5" fill-opacity="1" fill="#ffffff"></path><g id="SvgjsG1846"><text id="SvgjsText1847" font-family="微软雅黑" text-anchor="middle" font-size="13px" width="110px" fill="#323232" font-weight="400" align="middle" lineHeight="125%" anchor="middle" family="微软雅黑" size="13px" weight="400" font-style="" opacity="1" y="-0.125" transform="rotate(0)"><tspan id="SvgjsTspan1848" dy="16.25" x="65"><tspan id="SvgjsTspan1849" style="">报错，zk节点存储</tspan></tspan><tspan id="SvgjsTspan1850" dy="16.25" x="65"><tspan id="SvgjsTspan1851" style="">的时间戳大于当前</tspan></tspan><tspan id="SvgjsTspan1852" dy="16.25" x="65"><tspan id="SvgjsTspan1853" style="">服务的时间</tspan></tspan></text></g></g><g id="SvgjsG1854"><path id="SvgjsPath1855" d="M1003.0625 680.0625L1032.3125 680.0625L1032.3125 754.9027777777778L309.625 754.9027777777778L309.625 782.2027777777778" stroke="#323232" stroke-width="1.5" fill="none" marker-end="url(#SvgjsMarker1856)"></path><rect id="SvgjsRect1858" width="13" height="18" x="711.5381163194445" y="745.9027777777778" fill="#ffffff"></rect><text id="SvgjsText1859" font-family="微软雅黑" text-anchor="middle" font-size="13px" width="13px" fill="#323232" font-weight="400" align="top" lineHeight="16px" anchor="middle" family="微软雅黑" size="13px" weight="400" font-style="" opacity="1" y="743.2777777777778" transform="rotate(0)"><tspan id="SvgjsTspan1860" dy="16.25" x="718.0381163194445"><tspan id="SvgjsTspan1861" style="">是</tspan></tspan></text></g><g id="SvgjsG1862"><path id="SvgjsPath1863" d="M522.125 578.875L522.125 681.5138888888889L309.625 681.5138888888889L309.625 782.2027777777778" stroke="#323232" stroke-width="1.5" fill="none" marker-end="url(#SvgjsMarker1864)"></path></g><g id="SvgjsG1866" transform="translate(261.625,784.9027777777778)"><path id="SvgjsPath1867" d="M 0 4Q 0 0 4 0L 92 0Q 96 0 96 4L 96 50Q 96 54 92 54L 4 54Q 0 54 0 50Z" stroke="rgba(33,41,48,1)" stroke-width="1.5" fill-opacity="1" fill="#ffffff"></path><g id="SvgjsG1868"><text id="SvgjsText1869" font-family="微软雅黑" text-anchor="middle" font-size="13px" width="76px" fill="#323232" font-weight="400" align="middle" lineHeight="125%" anchor="middle" family="微软雅黑" size="13px" weight="400" font-style="" opacity="1" y="-0.125" transform="rotate(0)"><tspan id="SvgjsTspan1870" dy="16.25" x="48"><tspan id="SvgjsTspan1871" style="">定时更新zk</tspan></tspan><tspan id="SvgjsTspan1872" dy="16.25" x="48"><tspan id="SvgjsTspan1873" style="">节点的时间</tspan></tspan><tspan id="SvgjsTspan1874" dy="16.25" x="48"><tspan id="SvgjsTspan1875" style="">戳</tspan></tspan></text></g></g><g id="SvgjsG1876"><path id="SvgjsPath1877" d="M309.625 839.6527777777778L309.625 898.425" stroke="#323232" stroke-width="1.5" fill="none" marker-end="url(#SvgjsMarker1878)"></path></g><g id="SvgjsG1880" transform="translate(261.625,901.125)"><path id="SvgjsPath1881" d="M 0 4Q 0 0 4 0L 92 0Q 96 0 96 4L 96 50Q 96 54 92 54L 4 54Q 0 54 0 50Z" stroke="rgba(33,41,48,1)" stroke-width="1.5" fill-opacity="1" fill="#ffffff"></path><g id="SvgjsG1882"><text id="SvgjsText1883" font-family="微软雅黑" text-anchor="middle" font-size="13px" width="76px" fill="#323232" font-weight="400" align="middle" lineHeight="125%" anchor="middle" family="微软雅黑" size="13px" weight="400" font-style="" opacity="1" y="-0.125" transform="rotate(0)"><tspan id="SvgjsTspan1884" dy="16.25" x="48"><tspan id="SvgjsTspan1885" style="">更新工作Id到</tspan></tspan><tspan id="SvgjsTspan1886" dy="16.25" x="48"><tspan id="SvgjsTspan1887" style="">本地临时文</tspan></tspan><tspan id="SvgjsTspan1888" dy="16.25" x="48"><tspan id="SvgjsTspan1889" style="">件中</tspan></tspan></text></g></g><g id="SvgjsG1890"><path id="SvgjsPath1891" d="M249 75.75L249 115L249 115L249 152.3" stroke="#323232" stroke-width="1.5" fill="none" marker-end="url(#SvgjsMarker1892)"></path></g><g id="SvgjsG1894" transform="translate(201,155)"><path id="SvgjsPath1895" d="M 0 35L 48 0L 96 35L 48 70Z" stroke="rgba(33,41,48,1)" stroke-width="1.5" fill-opacity="1" fill="#ffffff"></path><g id="SvgjsG1896"><text id="SvgjsText1897" font-family="微软雅黑" text-anchor="middle" font-size="13px" width="76px" fill="#323232" font-weight="400" align="middle" lineHeight="125%" anchor="middle" family="微软雅黑" size="13px" weight="400" font-style="" opacity="1" y="16.225" transform="rotate(0)"><tspan id="SvgjsTspan1898" dy="16.25" x="48"><tspan id="SvgjsTspan1899" style="">程序是否异</tspan></tspan><tspan id="SvgjsTspan1900" dy="16.25" x="48"><tspan id="SvgjsTspan1901" style="">常</tspan></tspan></text></g></g><g id="SvgjsG1902"><path id="SvgjsPath1903" d="M297.75 190L489 190L489 263.8" stroke="#323232" stroke-width="1.5" fill="none" marker-end="url(#SvgjsMarker1904)"></path><rect id="SvgjsRect1906" width="13" height="18" x="419.5796089385475" y="181" fill="#ffffff"></rect><text id="SvgjsText1907" font-family="微软雅黑" text-anchor="middle" font-size="13px" width="13px" fill="#323232" font-weight="400" align="top" lineHeight="16px" anchor="middle" family="微软雅黑" size="13px" weight="400" font-style="" opacity="1" y="178.375" transform="rotate(0)"><tspan id="SvgjsTspan1908" dy="16.25" x="426.0796089385475"><tspan id="SvgjsTspan1909" style="">否</tspan></tspan></text></g><g id="SvgjsG1910"><path id="SvgjsPath1911" d="M200.25 190L161 190L161 190L123.70000000000005 190" stroke="#323232" stroke-width="1.5" fill="none" marker-end="url(#SvgjsMarker1912)"></path><rect id="SvgjsRect1914" width="13" height="18" x="163.4489583333334" y="181" fill="#ffffff"></rect><text id="SvgjsText1915" font-family="微软雅黑" text-anchor="middle" font-size="13px" width="13px" fill="#323232" font-weight="400" align="top" lineHeight="16px" anchor="middle" family="微软雅黑" size="13px" weight="400" font-style="" opacity="1" y="178.375" transform="rotate(0)"><tspan id="SvgjsTspan1916" dy="16.25" x="169.9489583333334"><tspan id="SvgjsTspan1917" style="">是</tspan></tspan></text></g><g id="SvgjsG1918" transform="translate(25,163)"><path id="SvgjsPath1919" d="M 0 4Q 0 0 4 0L 92 0Q 96 0 96 4L 96 50Q 96 54 92 54L 4 54Q 0 54 0 50Z" stroke="rgba(33,41,48,1)" stroke-width="1.5" fill-opacity="1" fill="#ffffff"></path><g id="SvgjsG1920"><text id="SvgjsText1921" font-family="微软雅黑" text-anchor="middle" font-size="13px" width="76px" fill="#323232" font-weight="400" align="middle" lineHeight="125%" anchor="middle" family="微软雅黑" size="13px" weight="400" font-style="" opacity="1" y="-0.125" transform="rotate(0)"><tspan id="SvgjsTspan1922" dy="16.25" x="48"><tspan id="SvgjsTspan1923" style="">从本地临时</tspan></tspan><tspan id="SvgjsTspan1924" dy="16.25" x="48"><tspan id="SvgjsTspan1925" style="">文件中获取</tspan></tspan><tspan id="SvgjsTspan1926" dy="16.25" x="48"><tspan id="SvgjsTspan1927" style="">工作Id</tspan></tspan></text></g></g><g id="SvgjsG1928"><path id="SvgjsPath1929" d="M243.75 339.25L243.75 561.7013888888889L309.625 561.7013888888889L309.625 782.2027777777778" stroke="#323232" stroke-width="1.5" fill="none" marker-end="url(#SvgjsMarker1930)"></path></g><g id="SvgjsG1932"><path id="SvgjsPath1933" d="M73 217.75L73 561.4513888888888L309.625 561.4513888888888L309.625 782.2027777777778" stroke="#323232" stroke-width="1.5" fill="none" marker-end="url(#SvgjsMarker1934)"></path></g><g id="SvgjsG1936" transform="translate(259.625,1009.5)"><path id="SvgjsPath1937" d="M 16.666666666666668 0L 83.33333333333333 0C 105.55555555555556 0 105.55555555555556 50 83.33333333333333 50L 16.666666666666668 50C -5.555555555555556 50 -5.555555555555556 0 16.666666666666668 0Z" stroke="rgba(33,41,48,1)" stroke-width="1.5" fill-opacity="1" fill="#ffffff"></path><g id="SvgjsG1938"><text id="SvgjsText1939" font-family="微软雅黑" text-anchor="middle" font-size="13px" width="80px" fill="#323232" font-weight="400" align="middle" lineHeight="125%" anchor="middle" family="微软雅黑" size="13px" weight="400" font-style="" opacity="1" y="14.375" transform="rotate(0)"><tspan id="SvgjsTspan1940" dy="16.25" x="50"><tspan id="SvgjsTspan1941" style="">结束</tspan></tspan></text></g></g><g id="SvgjsG1942"><path id="SvgjsPath1943" d="M309.625 955.875L309.625 982.3125L309.625 982.3125L309.625 1006.8" stroke="#323232" stroke-width="1.5" fill="none" marker-end="url(#SvgjsMarker1944)"></path></g><g id="SvgjsG1946"><path id="SvgjsPath1947" d="M695.71875 707.8125L695.71875 977.1701388888889L309.625 977.1701388888889L309.625 1006.8" stroke="#323232" stroke-width="1.5" fill="none" marker-end="url(#SvgjsMarker1948)"></path></g></svg>