<svg id="SvgjsSvg1256" width="559.5" height="342" xmlns="http://www.w3.org/2000/svg" version="1.1" xmlns:xlink="http://www.w3.org/1999/xlink" xmlns:svgjs="http://svgjs.com/svgjs"><defs id="SvgjsDefs1257"><pattern patternUnits="userSpaceOnUse" id="pattern_mark_0" width="300" height="300"><text x="150" y="100" fill="rgba(229,229,229,0.8)" font-size="18" transform="rotate(-45, 150, 150)" style="dominant-baseline: middle; text-anchor: middle;"></text></pattern><pattern patternUnits="userSpaceOnUse" id="pattern_mark_1" width="300" height="300"><text x="150" y="200" fill="rgba(229,229,229,0.8)" font-size="18" transform="rotate(-45, 150, 150)" style="dominant-baseline: middle; text-anchor: middle;"></text></pattern><marker id="SvgjsMarker1367" markerWidth="13" markerHeight="9" refX="9.5" refY="4.5" viewBox="0 0 13 9" orient="auto" markerUnits="userSpaceOnUse" stroke-dasharray="0,0"><path id="SvgjsPath1368" d="M0,0 L13,4.5 L0,9 L0,0" fill="#323232" stroke="#323232" stroke-width="1"></path></marker><marker id="SvgjsMarker1375" markerWidth="13" markerHeight="9" refX="9.5" refY="4.5" viewBox="0 0 13 9" orient="auto" markerUnits="userSpaceOnUse" stroke-dasharray="0,0"><path id="SvgjsPath1376" d="M0,0 L13,4.5 L0,9 L0,0" fill="#323232" stroke="#323232" stroke-width="1"></path></marker></defs><rect id="svgbackgroundid" width="559.5" height="342" fill="transparent"></rect><rect id="SvgjsRect1259" width="559.5" height="342" fill="url(#pattern_mark_0)"></rect><rect id="SvgjsRect1260" width="559.5" height="342" fill="url(#pattern_mark_1)"></rect><g id="SvgjsG1261" transform="translate(40,25)"><path id="SvgjsPath1262" d="M 0 4Q 0 0 4 0L 117 0Q 121 0 121 4L 121 288Q 121 292 117 292L 4 292Q 0 292 0 288Z" stroke="rgba(33,41,48,1)" stroke-width="1.5" fill-opacity="1" fill="#ffffff"></path><g id="SvgjsG1263"><text id="SvgjsText1264" font-family="微软雅黑" text-anchor="middle" font-size="13px" width="101px" fill="#323232" font-weight="400" align="middle" lineHeight="125%" anchor="middle" family="微软雅黑" size="13px" weight="400" font-style="" opacity="1" y="135.375" transform="rotate(0)"></text></g></g><g id="SvgjsG1265" transform="translate(51,25)"><path id="SvgjsPath1266" d="M 0 0L 100 0L 100 40L 0 40Z" stroke="none" fill="none"></path><g id="SvgjsG1267"><text id="SvgjsText1268" font-family="微软雅黑" text-anchor="middle" font-size="13px" width="100px" fill="#323232" font-weight="400" align="middle" lineHeight="125%" anchor="middle" family="微软雅黑" size="13px" weight="400" font-style="" opacity="1" y="9.375" transform="rotate(0)"><tspan id="SvgjsTspan1269" dy="16.25" x="50"><tspan id="SvgjsTspan1270" style="font-weight: bold;fill: rgb(231, 79, 76);">虚拟机栈</tspan></tspan></text></g></g><g id="SvgjsG1271" transform="translate(53,72)"><path id="SvgjsPath1272" d="M 0 4Q 0 0 4 0L 92 0Q 96 0 96 4L 96 95Q 96 99 92 99L 4 99Q 0 99 0 95Z" stroke="rgba(33,41,48,1)" stroke-width="1.5" fill-opacity="1" fill="#ffffff"></path><g id="SvgjsG1273"><text id="SvgjsText1274" font-family="微软雅黑" text-anchor="middle" font-size="13px" width="76px" fill="#323232" font-weight="400" align="middle" lineHeight="125%" anchor="middle" family="微软雅黑" size="13px" weight="400" font-style="" opacity="1" y="38.875" transform="rotate(0)"></text></g></g><g id="SvgjsG1275" transform="translate(53,247)"><path id="SvgjsPath1276" d="M 0 4Q 0 0 4 0L 92 0Q 96 0 96 4L 96 50Q 96 54 92 54L 4 54Q 0 54 0 50Z" stroke="rgba(33,41,48,1)" stroke-width="1.5" fill-opacity="1" fill="#ffffff"></path><g id="SvgjsG1277"><text id="SvgjsText1278" font-family="微软雅黑" text-anchor="middle" font-size="13px" width="76px" fill="#323232" font-weight="400" align="middle" lineHeight="125%" anchor="middle" family="微软雅黑" size="13px" weight="400" font-style="" opacity="1" y="16.375" transform="rotate(0)"><tspan id="SvgjsTspan1279" dy="16.25" x="48"><tspan id="SvgjsTspan1280" style="">线程2</tspan></tspan></text></g></g><g id="SvgjsG1281" transform="translate(25,63)"><path id="SvgjsPath1282" d="M 0 0L 100 0L 100 40L 0 40Z" stroke="none" fill="none"></path><g id="SvgjsG1283"><text id="SvgjsText1284" font-family="微软雅黑" text-anchor="middle" font-size="13px" width="100px" fill="#323232" font-weight="400" align="middle" lineHeight="125%" anchor="middle" family="微软雅黑" size="13px" weight="400" font-style="" opacity="1" y="9.375" transform="rotate(0)"><tspan id="SvgjsTspan1285" dy="16.25" x="50"><tspan id="SvgjsTspan1286" style="">线程1</tspan></tspan></text></g></g><g id="SvgjsG1287" transform="translate(53,97.5)"><path id="SvgjsPath1288" d="M 0 0L 96 0L 96 26.5L 0 26.5Z" stroke="rgba(33,41,48,1)" stroke-width="1.5" fill-opacity="1" fill="#ffffff"></path><g id="SvgjsG1289"><text id="SvgjsText1290" font-family="微软雅黑" text-anchor="middle" font-size="13px" width="76px" fill="#323232" font-weight="400" align="middle" lineHeight="125%" anchor="middle" family="微软雅黑" size="13px" weight="400" font-style="" opacity="1" y="2.625" transform="rotate(0)"><tspan id="SvgjsTspan1291" dy="16.25" x="48"><tspan id="SvgjsTspan1292" style="">栈帧1</tspan></tspan></text></g></g><g id="SvgjsG1293" transform="translate(53,124)"><path id="SvgjsPath1294" d="M 0 0L 96 0L 96 104L 0 104Z" stroke="rgba(33,41,48,1)" stroke-width="1.5" fill-opacity="1" fill="#ffffff"></path><g id="SvgjsG1295"><text id="SvgjsText1296" font-family="微软雅黑" text-anchor="middle" font-size="13px" width="76px" fill="#323232" font-weight="400" align="middle" lineHeight="125%" anchor="middle" family="微软雅黑" size="13px" weight="400" font-style="" opacity="1" y="41.375" transform="rotate(0)"></text></g></g><g id="SvgjsG1297" transform="translate(25,115.75)"><path id="SvgjsPath1298" d="M 0 0L 151 0L 151 40L 0 40Z" stroke="none" fill="none"></path><g id="SvgjsG1299"><text id="SvgjsText1300" font-family="微软雅黑" text-anchor="middle" font-size="13px" width="151px" fill="#323232" font-weight="400" align="middle" lineHeight="125%" anchor="middle" family="微软雅黑" size="13px" weight="400" font-style="" opacity="1" y="9.375" transform="rotate(0)"><tspan id="SvgjsTspan1301" dy="16.25" x="75.5"><tspan id="SvgjsTspan1302" style="">main方法栈帧2</tspan></tspan></text></g></g><g id="SvgjsG1303" transform="translate(59.5,148)"><path id="SvgjsPath1304" d="M 0 0L 83 0L 83 75.5L 0 75.5Z" stroke="rgba(33,41,48,1)" stroke-width="1.5" fill-opacity="1" fill="#ffffff"></path><g id="SvgjsG1305"><text id="SvgjsText1306" font-family="微软雅黑" text-anchor="middle" font-size="13px" width="63px" fill="#323232" font-weight="400" align="middle" lineHeight="125%" anchor="middle" family="微软雅黑" size="13px" weight="400" font-style="" opacity="1" y="27.125" transform="rotate(0)"></text></g></g><g id="SvgjsG1307" transform="translate(51,138.5)"><path id="SvgjsPath1308" d="M 0 0L 100 0L 100 40L 0 40Z" stroke="none" fill="none"></path><g id="SvgjsG1309"><text id="SvgjsText1310" font-family="微软雅黑" text-anchor="middle" font-size="13px" width="100px" fill="#323232" font-weight="400" align="middle" lineHeight="125%" anchor="middle" family="微软雅黑" size="13px" weight="400" font-style="" opacity="1" y="9.375" transform="rotate(0)"><tspan id="SvgjsTspan1311" dy="16.25" x="50"><tspan id="SvgjsTspan1312" style="">局部变量表</tspan></tspan></text></g></g><g id="SvgjsG1313" transform="translate(62.75,172.5)"><path id="SvgjsPath1314" d="M 0 0L 76.5 0L 76.5 47.5L 0 47.5Z" stroke="rgba(33,41,48,1)" stroke-width="1.5" fill-opacity="1" fill="#ffffff"></path><g id="SvgjsG1315"><text id="SvgjsText1316" font-family="微软雅黑" text-anchor="middle" font-size="12px" width="57px" fill="#323232" font-weight="400" align="middle" lineHeight="125%" anchor="middle" family="微软雅黑" size="12px" weight="400" font-style="" opacity="1" y="-1.25" transform="rotate(0)"><tspan id="SvgjsTspan1317" dy="15" x="38.5"><tspan id="SvgjsTspan1318" style="">对象引用-</tspan></tspan><tspan id="SvgjsTspan1319" dy="15" x="38.5"><tspan id="SvgjsTspan1320" style="">threadLoc</tspan></tspan><tspan id="SvgjsTspan1321" dy="15" x="38.5"><tspan id="SvgjsTspan1322" style="">al</tspan></tspan></text></g></g><g id="SvgjsG1323" transform="translate(244,25)"><path id="SvgjsPath1324" d="M 0 4Q 0 0 4 0L 286.5 0Q 290.5 0 290.5 4L 290.5 288Q 290.5 292 286.5 292L 4 292Q 0 292 0 288Z" stroke="rgba(33,41,48,1)" stroke-width="1.5" fill-opacity="1" fill="#ffffff"></path><g id="SvgjsG1325"><text id="SvgjsText1326" font-family="微软雅黑" text-anchor="middle" font-size="13px" width="271px" fill="#323232" font-weight="400" align="middle" lineHeight="125%" anchor="middle" family="微软雅黑" size="13px" weight="400" font-style="" opacity="1" y="135.375" transform="rotate(0)"></text></g></g><g id="SvgjsG1327" transform="translate(330.33333333333337,25)"><path id="SvgjsPath1328" d="M 0 0L 100 0L 100 40L 0 40Z" stroke="none" fill="none"></path><g id="SvgjsG1329"><text id="SvgjsText1330" font-family="微软雅黑" text-anchor="middle" font-size="13px" width="100px" fill="#323232" font-weight="400" align="middle" lineHeight="125%" anchor="middle" family="微软雅黑" size="13px" weight="400" font-style="" opacity="1" y="9.375" transform="rotate(0)"><tspan id="SvgjsTspan1331" dy="16.25" x="50"><tspan id="SvgjsTspan1332" style="font-weight: bold;fill: rgb(231, 79, 76);">堆</tspan></tspan></text></g></g><g id="SvgjsG1333" transform="translate(259.83333333333337,76.5)"><path id="SvgjsPath1334" d="M 0 4Q 0 0 4 0L 92 0Q 96 0 96 4L 96 50Q 96 54 92 54L 4 54Q 0 54 0 50Z" stroke="rgba(33,41,48,1)" stroke-width="1.5" fill-opacity="1" fill="#ffffff"></path><g id="SvgjsG1335"><text id="SvgjsText1336" font-family="微软雅黑" text-anchor="middle" font-size="13px" width="76px" fill="#323232" font-weight="400" align="middle" lineHeight="125%" anchor="middle" family="微软雅黑" size="13px" weight="400" font-style="" opacity="1" y="7.875" transform="rotate(0)"><tspan id="SvgjsTspan1337" dy="16.25" x="48"><tspan id="SvgjsTspan1338" style="">ThreadLocal</tspan></tspan><tspan id="SvgjsTspan1339" dy="16.25" x="48"><tspan id="SvgjsTspan1340" style="">对象</tspan></tspan></text></g></g><g id="SvgjsG1341" transform="translate(310.33333333333337,183.16666666666669)"><path id="SvgjsPath1342" d="M 0 4Q 0 0 4 0L 184.33333333333326 0Q 188.33333333333326 0 188.33333333333326 4L 188.33333333333326 101.33333333333331Q 188.33333333333326 105.33333333333331 184.33333333333326 105.33333333333331L 4 105.33333333333331Q 0 105.33333333333331 0 101.33333333333331Z" stroke="rgba(33,41,48,1)" stroke-width="1.5" fill-opacity="1" fill="#ffffff"></path><g id="SvgjsG1343"><text id="SvgjsText1344" font-family="微软雅黑" text-anchor="middle" font-size="13px" width="169px" fill="#323232" font-weight="400" align="middle" lineHeight="125%" anchor="middle" family="微软雅黑" size="13px" weight="400" font-style="" opacity="1" y="42.04166666666666" transform="rotate(0)"></text></g></g><g id="SvgjsG1345" transform="translate(310.33333333333337,185.66666666666663)"><path id="SvgjsPath1346" d="M 0 0L 188.33333333333326 0L 188.33333333333326 51.16666666666674L 0 51.16666666666674Z" stroke="none" fill="none"></path><g id="SvgjsG1347"><text id="SvgjsText1348" font-family="微软雅黑" text-anchor="middle" font-size="13px" width="189px" fill="#323232" font-weight="400" align="middle" lineHeight="125%" anchor="middle" family="微软雅黑" size="13px" weight="400" font-style="" opacity="1" y="6.458333333333371" transform="rotate(0)"><tspan id="SvgjsTspan1349" dy="16.25" x="94.5"><tspan id="SvgjsTspan1350" style="">某线程的ThreadLocalMap的</tspan></tspan><tspan id="SvgjsTspan1351" dy="16.25" x="94.5"><tspan id="SvgjsTspan1352" style="">Entry对象</tspan></tspan></text></g></g><g id="SvgjsG1353" transform="translate(330.3333333333335,240.66666666666669)"><path id="SvgjsPath1354" d="M 0 4Q 0 0 4 0L 75.16666666666652 0Q 79.16666666666652 0 79.16666666666652 4L 79.16666666666652 37.16666666666663Q 79.16666666666652 41.16666666666663 75.16666666666652 41.16666666666663L 4 41.16666666666663Q 0 41.16666666666663 0 37.16666666666663Z" stroke="rgba(33,41,48,1)" stroke-width="1.5" fill-opacity="1" fill="#ffffff"></path><g id="SvgjsG1355"><text id="SvgjsText1356" font-family="微软雅黑" text-anchor="middle" font-size="13px" width="60px" fill="#323232" font-weight="400" align="middle" lineHeight="125%" anchor="middle" family="微软雅黑" size="13px" weight="400" font-style="" opacity="1" y="9.958333333333314" transform="rotate(0)"><tspan id="SvgjsTspan1357" dy="16.25" x="40"><tspan id="SvgjsTspan1358" style="">key</tspan></tspan></text></g></g><g id="SvgjsG1359" transform="translate(409.5000000000001,240.66666666666669)"><path id="SvgjsPath1360" d="M 0 4Q 0 0 4 0L 75.16666666666652 0Q 79.16666666666652 0 79.16666666666652 4L 79.16666666666652 37.16666666666663Q 79.16666666666652 41.16666666666663 75.16666666666652 41.16666666666663L 4 41.16666666666663Q 0 41.16666666666663 0 37.16666666666663Z" stroke="rgba(33,41,48,1)" stroke-width="1.5" fill-opacity="1" fill="#ffffff"></path><g id="SvgjsG1361"><text id="SvgjsText1362" font-family="微软雅黑" text-anchor="middle" font-size="13px" width="60px" fill="#323232" font-weight="400" align="middle" lineHeight="125%" anchor="middle" family="微软雅黑" size="13px" weight="400" font-style="" opacity="1" y="9.958333333333314" transform="rotate(0)"><tspan id="SvgjsTspan1363" dy="16.25" x="40"><tspan id="SvgjsTspan1364" style="">value</tspan></tspan></text></g></g><g id="SvgjsG1365"><path id="SvgjsPath1366" d="M139.9943638310803 196.15822589156272C 200.10116633594174 196.24999999999994 198.98216699739163 103.5 257.1536235414443 103.83038679037418" stroke="#323232" stroke-width="1.5" fill="none" marker-end="url(#SvgjsMarker1367)"></path><rect id="SvgjsRect1369" width="39" height="18" x="181.5401552496281" y="138.1302895436206" fill="#ffffff"></rect><text id="SvgjsText1370" font-family="微软雅黑" text-anchor="middle" font-size="13px" width="39px" fill="#5b79e8" font-weight="700" align="top" lineHeight="16px" anchor="middle" family="微软雅黑" size="13px" weight="700" font-style="" opacity="1" y="135.5052895436206" transform="rotate(0)"><tspan id="SvgjsTspan1371" dy="16.25" x="201.0401552496281"><tspan id="SvgjsTspan1372" style="">强引用</tspan></tspan></text></g><g id="SvgjsG1373"><path id="SvgjsPath1374" d="M370.08843287830746 239.93660066380215C 369.91666666666674 185.51156213811413 544.5 83.5 358.5281730710208 103.33315040251568" stroke-dasharray="8,5" stroke="#323232" stroke-width="1.5" fill="none" marker-end="url(#SvgjsMarker1375)"></path><rect id="SvgjsRect1377" width="39" height="18" x="416.8129093280479" y="131.25473986233766" fill="#ffffff"></rect><text id="SvgjsText1378" font-family="微软雅黑" text-anchor="middle" font-size="13px" width="39px" fill="#5b79e8" font-weight="700" align="top" lineHeight="16px" anchor="middle" family="微软雅黑" size="13px" weight="700" font-style="" opacity="1" y="128.62973986233766" transform="rotate(0)"><tspan id="SvgjsTspan1379" dy="16.25" x="436.3129093280479"><tspan id="SvgjsTspan1380" style="">弱引用</tspan></tspan></text></g></svg>